<svg width="24" height="24" viewBox="0 0 24 24" fill="none" xmlns="http://www.w3.org/2000/svg">
<path d="M10 11L21 11.9C21.5134 12.0009 21.8621 12.4805 21.8 13L21.135 17.158C21.0573 17.6433 20.6385 18.0003 20.147 18H20M16 18H11" stroke="#F57010" stroke-width="2" stroke-linecap="round" stroke-linejoin="round"/>
<path d="M18 5C17.4481 5 17 5.44808 17 6V11.573M3 4H11.129C11.6281 4.00029 12.0506 4.36858 12.119 4.863L13 11.246M4 11V4M7 15H7.01M8 10.1V4" stroke="#F57010" stroke-width="2" stroke-linecap="round" stroke-linejoin="round"/>
<path d="M16 18C16 19.1038 16.8962 20 18 20C19.1038 20 20 19.1038 20 18C20 16.8962 19.1038 16 18 16C16.8962 16 16 16.8962 16 18V18" stroke="#F57010" stroke-width="2" stroke-linecap="round" stroke-linejoin="round"/>
<path d="M2 15C2 17.7596 4.24042 20 7 20C9.75958 20 12 17.7596 12 15C12 12.2404 9.75958 10 7 10C4.24042 10 2 12.2404 2 15V15" stroke="#F57010" stroke-width="2" stroke-linecap="round" stroke-linejoin="round"/>
</svg>
