<svg width="24" height="24" viewBox="0 0 24 24" fill="none" xmlns="http://www.w3.org/2000/svg">
<path d="M7 21C7 21.5519 7.44808 22 8 22C8.55192 22 9 21.5519 9 21C9 20.4481 8.55192 20 8 20C7.44808 20 7 20.4481 7 21V21" stroke="#F57010" stroke-width="2" stroke-linecap="round" stroke-linejoin="round"/>
<path d="M18 21C18 21.5519 18.4481 22 19 22C19.5519 22 20 21.5519 20 21C20 20.4481 19.5519 20 19 20C18.4481 20 18 20.4481 18 21V21" stroke="#F57010" stroke-width="2" stroke-linecap="round" stroke-linejoin="round"/>
<path d="M2.0498 2.0498H4.0498L6.7098 14.4698C6.91109 15.4081 7.75042 16.0712 8.7098 16.0498H18.4898C19.4275 16.0483 20.2382 15.3955 20.4398 14.4798L22.0898 7.0498H5.1198" stroke="#F57010" stroke-width="2" stroke-linecap="round" stroke-linejoin="round"/>
</svg>
