<svg width="24" height="24" viewBox="0 0 24 24" fill="none" xmlns="http://www.w3.org/2000/svg">
<path d="M10 10V5C10 4.44808 10.4481 4 11 4H13C13.5519 4 14 4.44808 14 5V10M14 6C17.3115 6 20 8.68851 20 12V15M4 15V12C4 8.68851 6.68851 6 10 6" stroke="#F57010" stroke-width="2" stroke-linecap="round" stroke-linejoin="round"/>
<path d="M3 15H21C21.5519 15 22 15.4481 22 16V18C22 18.5519 21.5519 19 21 19H3C2.44808 19 2 18.5519 2 18V16C2 15.4481 2.44808 15 3 15V15" stroke="#F57010" stroke-width="2" stroke-linecap="round" stroke-linejoin="round"/>
</svg>
