<svg width="24" height="24" viewBox="0 0 24 24" fill="none" xmlns="http://www.w3.org/2000/svg">
<path d="M11 21.7299C11.6188 22.0872 12.3812 22.0872 13 21.7299L20 17.7299C20.6182 17.373 20.9993 16.7137 21 15.9999V7.9999C20.9993 7.2861 20.6182 6.6268 20 6.2699L13 2.2699C12.3812 1.91264 11.6188 1.91264 11 2.2699L4 6.2699C3.38183 6.6268 3.00073 7.2861 3 7.9999V15.9999C3.00073 16.7137 3.38183 17.373 4 17.7299L11 21.7299M12 21.9999V11.9999" stroke="#F57010" stroke-width="2" stroke-linecap="round" stroke-linejoin="round"/>
<path d="M3.29004 7.00002L12 12L20.71 7.00002M7.50004 4.27002L16.5 9.42002" stroke="#F57010" stroke-width="2" stroke-linecap="round" stroke-linejoin="round"/>
</svg>
