<svg width="24" height="24" viewBox="0 0 24 24" fill="none" xmlns="http://www.w3.org/2000/svg">
<path d="M12 16H12.01M16 16H16.01M3 19C3 20.1038 3.89617 21 5 21H19C20.1038 21 21 20.1038 21 19V8.5C21.0002 8.3173 20.9007 8.14903 20.7405 8.06114C20.5804 7.97324 20.385 7.9797 20.231 8.078L15.769 10.922C15.615 11.0203 15.4196 11.0268 15.2595 10.9389C15.0993 10.851 14.9998 10.6827 15 10.5V8.5C15.0002 8.3173 14.9007 8.14903 14.7405 8.06114C14.5804 7.97324 14.385 7.9797 14.231 8.078L9.77 10.922C9.61595 11.0208 9.4202 11.0276 9.2597 10.9396C9.09919 10.8517 8.99957 10.683 9 10.5V5C9 3.89617 8.10383 3 7 3H5C3.89617 3 3 3.89617 3 5L12 16M17 13H17.01" stroke="#F57010" stroke-width="2" stroke-linecap="round" stroke-linejoin="round"/>
</svg>
